<?xml version="1.0" encoding="UTF-8" standalone="no" ?>
<!DOCTYPE svg PUBLIC "-//W3C//DTD SVG 1.1//EN" "http://www.w3.org/Graphics/SVG/1.1/DTD/svg11.dtd">
<svg xmlns="http://www.w3.org/2000/svg" xmlns:xlink="http://www.w3.org/1999/xlink" version="1.1" width="1080" height="1080" viewBox="0 0 1080 1080" xml:space="preserve">
<desc>Created with Fabric.js 5.2.4</desc>
<defs>
</defs>
<rect x="0" y="0" width="100%" height="100%" fill="transparent"></rect>
<g transform="matrix(1 0 0 1 540 540)" id="6e2a9680-7ff1-4ea7-96f9-886fb36eb6b6"  >
</g>
<g transform="matrix(1 0 0 1 540 540)" id="13c0bac3-683c-4c2f-8666-f35d5e86b89f"  >
<rect style="stroke: none; stroke-width: 1; stroke-dasharray: none; stroke-linecap: butt; stroke-dashoffset: 0; stroke-linejoin: miter; stroke-miterlimit: 4; fill: rgb(255,255,255); fill-rule: nonzero; opacity: 1; visibility: hidden;" vector-effect="non-scaling-stroke"  x="-540" y="-540" rx="0" ry="0" width="1080" height="1080" />
</g>
<g transform="matrix(45 0 0 45 540 540)"  >
<path style="stroke: rgb(34,80,245); stroke-width: 1.5; stroke-dasharray: none; stroke-linecap: round; stroke-dashoffset: 0; stroke-linejoin: round; stroke-miterlimit: 4; fill: rgb(255,255,255); fill-opacity: 0; fill-rule: nonzero; opacity: 1;"  transform=" translate(-12, -12.2)" d="M 4.26 10.147 C 3.9849475202907993 12.252572081678673 3.8210535631318088 14.371176859862292 3.7690000000000072 16.494000000000003 C 6.6478030393069325 17.696510709193777 9.404179096694131 19.17332013855564 11.999999999999977 20.903999999999975 C 14.596138840856469 19.173263652821984 17.352852186651827 17.69645293186018 20.231999999999992 16.493999999999996 C 20.17990572562816 14.371178932451967 20.016011934080264 12.252576295070185 19.740999999999993 10.146999999999991 M 4.259 10.146999999999998 C 3.38060630801747 9.851728925194486 2.4942724671386642 9.580626813593863 1.600999999999976 9.333999999999996 C 4.86439876155965 7.045919477748324 8.347993323963786 5.089224041744611 11.999999999999995 3.4929999999999968 C 15.651975015447125 5.088888313940224 19.135569890867018 7.045248932504732 22.398999999999948 9.332999999999975 C 21.503 9.581 20.616 9.853 19.741 10.147 M 4.259 10.147 C 6.92762134891563 11.044209318385224 9.516900170031015 12.162071328483092 11.99999999999999 13.488999999999992 C 14.482747996685376 12.162059511393727 17.07169568469552 11.044196052307175 19.73999999999997 10.14700000000001 M 6.75 15 C 7.164213562373095 15 7.5 14.664213562373096 7.5 14.25 C 7.5 13.835786437626904 7.164213562373095 13.5 6.75 13.5 C 6.335786437626905 13.5 6 13.835786437626904 6 14.25 C 6 14.664213562373096 6.335786437626905 15 6.75 15 Z M 6.75 15 L 6.75 11.325 C 8.446733710357824 10.270337749705554 10.199295960106078 9.308264529938985 11.999999999999986 8.443000000000001 M 4.993 19.993000000000002 C 6.119950403386117 18.868822050164976 6.752285866775308 17.341787689800526 6.75 15.749999999999998 L 6.75 14.25" stroke-linecap="round" />
</g>
</svg>